# xmcd
#
# Track frame offsets: 
#        150
#        16100
#        33228
#        51486
#        69258
#        82686
#        98221
#        116810
#        136232
#        154416
#        168084
#
# Disc length: 2486 seconds
#
# Revision: 0
# Processed by: cddbd v1.5.2PL0 Copyright (c) Steve Scherf et al.
# Submitted via: ExactAudioCopy v1.0b3
#
DISCID=8109b40b
DTITLE=Seth Walker - Sky Still Blue
DYEAR=2014
DGENRE=Blues
TTITLE0=Easy Come, Easy Go
TTITLE1=Trouble (Don’t Want No)
TTITLE2=Grab Ahold
TTITLE3=Another Day
TTITLE4=Tomorrow
TTITLE5=All That I'm Asking
TTITLE6=High Wire
TTITLE7=For a Moment There
TTITLE8=Either Way I Lose
TTITLE9=Jesus
TTITLE10=Way Too Far
EXTD=
EXTT0=
EXTT1=
EXTT2=
EXTT3=
EXTT4=
EXTT5=
EXTT6=
EXTT7=
EXTT8=
EXTT9=
EXTT10=
PLAYORDER=
